{
  "accessors": [
    {
      "bufferView": 2,
      "componentType": 5126,
      "count": 1672,
      "max": [
        4.918599605560303,
        5.157673358917236,
        2.0658817291259766
      ],
      "min": [
        -3.2386882305145264,
        -2.1273584365844727,
        -5.719874382019043
      ],
      "type": "VEC3"
    },
    {
      "bufferView": 2,
      "byteOffset": 20064,
      "componentType": 5126,
      "count": 1672,
      "max": [
        1.0,
        1.0,
        1.0
      ],
      "min": [
        -1.0,
        -1.0,
        -1.0
      ],
      "type": "VEC3"
    },
    {
      "bufferView": 3,
      "componentType": 5126,
      "count": 1672,
      "max": [
        1.0,
        1.0,
        1.0,
        1.0
      ],
      "min": [
        -1.0,
        -1.0,
        -1.0,
        1.0
      ],
      "type": "VEC4"
    },
    {
      "bufferView": 1,
      "componentType": 5126,
      "count": 1672,
      "max": [
        0.9833375811576843,
        0.987346887588501
      ],
      "min": [
        0.014578551054000854,
        0.018520578742027283
      ],
      "type": "VEC2"
    },
    {
      "bufferView": 1,
      "byteOffset": 13376,
      "componentType": 5126,
      "count": 1672,
      "max": [
        0.9833375811576843,
        0.987346887588501
      ],
      "min": [
        0.014578551054000854,
        0.018520578742027283
      ],
      "type": "VEC2"
    },
    {
      "bufferView": 1,
      "byteOffset": 26752,
      "componentType": 5126,
      "count": 1672,
      "max": [
        0.9833375811576843,
        0.987346887588501
      ],
      "min": [
        0.014578551054000854,
        0.018520578742027283
      ],
      "type": "VEC2"
    },
    {
      "bufferView": 0,
      "componentType": 5125,
      "count": 3216,
      "type": "SCALAR"
    },
    {
      "bufferView": 2,
      "byteOffset": 40128,
      "componentType": 5126,
      "count": 1533,
      "max": [
        4.713649749755859,
        3.9878573417663574,
        1.178697943687439
      ],
      "min": [
        -3.453066349029541,
        -3.045816421508789,
        -6.721805572509766
      ],
      "type": "VEC3"
    },
    {
      "bufferView": 2,
      "byteOffset": 58524,
      "componentType": 5126,
      "count": 1533,
      "max": [
        1.0,
        1.0,
        1.0
      ],
      "min": [
        -1.0,
        -1.0,
        -1.0
      ],
      "type": "VEC3"
    },
    {
      "bufferView": 3,
      "byteOffset": 26752,
      "componentType": 5126,
      "count": 1533,
      "max": [
        1.0,
        1.0,
        1.0,
        1.0
      ],
      "min": [
        -1.0,
        -1.0,
        -1.0,
        -1.0
      ],
      "type": "VEC4"
    },
    {
      "bufferView": 1,
      "byteOffset": 40128,
      "componentType": 5126,
      "count": 1533,
      "max": [
        0.9762725234031677,
        0.9832122921943665
      ],
      "min": [
        0.020394008606672287,
        0.009902015328407288
      ],
      "type": "VEC2"
    },
    {
      "bufferView": 1,
      "byteOffset": 52392,
      "componentType": 5126,
      "count": 1533,
      "max": [
        0.9762725234031677,
        0.9832122921943665
      ],
      "min": [
        0.020394008606672287,
        0.009902015328407288
      ],
      "type": "VEC2"
    },
    {
      "bufferView": 1,
      "byteOffset": 64656,
      "componentType": 5126,
      "count": 1533,
      "max": [
        0.9762725234031677,
        0.9832122921943665
      ],
      "min": [
        0.020394008606672287,
        0.009902015328407288
      ],
      "type": "VEC2"
    },
    {
      "bufferView": 0,
      "byteOffset": 12864,
      "componentType": 5125,
      "count": 2484,
      "type": "SCALAR"
    },
    {
      "bufferView": 2,
      "byteOffset": 76920,
      "componentType": 5126,
      "count": 63,
      "max": [
        3.4678359031677246,
        2.17863392829895,
        3.9882137775421143
      ],
      "min": [
        -4.804818153381348,
        -1.4529964923858643,
        -3.138293743133545
      ],
      "type": "VEC3"
    },
    {
      "bufferView": 2,
      "byteOffset": 77676,
      "componentType": 5126,
      "count": 63,
      "max": [
        1.0,
        0.952515184879303,
        1.0
      ],
      "min": [
        -1.0,
        -0.9525152444839478,
        -1.0
      ],
      "type": "VEC3"
    },
    {
      "bufferView": 3,
      "byteOffset": 51280,
      "componentType": 5126,
      "count": 63,
      "max": [
        0.5606649518013,
        0.9524820446968079,
        1.0,
        -1.0
      ],
      "min": [
        -0.5511744022369385,
        -0.974778950214386,
        -1.0,
        -1.0
      ],
      "type": "VEC4"
    },
    {
      "bufferView": 1,
      "byteOffset": 76920,
      "componentType": 5126,
      "count": 63,
      "max": [
        0.9801680445671082,
        0.9808453917503357
      ],
      "min": [
        0.019831955432891846,
        0.018292054533958435
      ],
      "type": "VEC2"
    },
    {
      "bufferView": 1,
      "byteOffset": 77424,
      "componentType": 5126,
      "count": 63,
      "max": [
        0.9801680445671082,
        0.9808453917503357
      ],
      "min": [
        0.019831955432891846,
        0.018292054533958435
      ],
      "type": "VEC2"
    },
    {
      "bufferView": 1,
      "byteOffset": 77928,
      "componentType": 5126,
      "count": 63,
      "max": [
        0.9801680445671082,
        0.9808453917503357
      ],
      "min": [
        0.019831955432891846,
        0.018292054533958435
      ],
      "type": "VEC2"
    },
    {
      "bufferView": 0,
      "byteOffset": 22800,
      "componentType": 5125,
      "count": 96,
      "type": "SCALAR"
    },
    {
      "bufferView": 2,
      "byteOffset": 78432,
      "componentType": 5126,
      "count": 4,
      "max": [
        1.491409182548523,
        1.2364025115966797,
        0.0
      ],
      "min": [
        -1.491409182548523,
        -1.2364025115966797,
        -2.384185791015625e-07
      ],
      "type": "VEC3"
    },
    {
      "bufferView": 2,
      "byteOffset": 78480,
      "componentType": 5126,
      "count": 4,
      "max": [
        0.0,
        9.641625098311124e-08,
        1.0
      ],
      "min": [
        0.0,
        9.641625098311124e-08,
        1.0
      ],
      "type": "VEC3"
    },
    {
      "bufferView": 3,
      "byteOffset": 52288,
      "componentType": 5126,
      "count": 4,
      "max": [
        1.0,
        5.961548765753832e-08,
        9.297785794320362e-15,
        1.0
      ],
      "min": [
        1.0,
        -9.643380138868451e-08,
        -5.7479016290801644e-15,
        1.0
      ],
      "type": "VEC4"
    },
    {
      "bufferView": 1,
      "byteOffset": 78432,
      "componentType": 5126,
      "count": 4,
      "max": [
        0.999908983707428,
        0.8289566040039063
      ],
      "min": [
        9.101629257202148e-05,
        9.107589721679688e-05
      ],
      "type": "VEC2"
    },
    {
      "bufferView": 1,
      "byteOffset": 78464,
      "componentType": 5126,
      "count": 4,
      "max": [
        0.999908983707428,
        0.8289566040039063
      ],
      "min": [
        9.101629257202148e-05,
        9.107589721679688e-05
      ],
      "type": "VEC2"
    },
    {
      "bufferView": 1,
      "byteOffset": 78496,
      "componentType": 5126,
      "count": 4,
      "max": [
        0.999908983707428,
        0.8289566040039063
      ],
      "min": [
        9.101629257202148e-05,
        9.107589721679688e-05
      ],
      "type": "VEC2"
    },
    {
      "bufferView": 0,
      "byteOffset": 23184,
      "componentType": 5125,
      "count": 6,
      "type": "SCALAR"
    }
  ],
  "asset": {
    "extras": {
      "author": "LucasPresoto (https://sketchfab.com/LucasPresoto)",
      "license": "CC-BY-4.0 (http://creativecommons.org/licenses/by/4.0/)",
      "source": "https://sketchfab.com/3d-models/bank-from-old-west-f7bebf6ede8b412aa3a73fef9c9c8910",
      "title": "Bank from Old West"
    },
    "generator": "Sketchfab-12.66.0",
    "version": "2.0"
  },
  "bufferViews": [
    {
      "buffer": 0,
      "byteLength": 23208,
      "name": "floatBufferViews",
      "target": 34963
    },
    {
      "buffer": 0,
      "byteLength": 78528,
      "byteOffset": 23208,
      "byteStride": 8,
      "name": "floatBufferViews",
      "target": 34962
    },
    {
      "buffer": 0,
      "byteLength": 78528,
      "byteOffset": 101736,
      "byteStride": 12,
      "name": "floatBufferViews",
      "target": 34962
    },
    {
      "buffer": 0,
      "byteLength": 52352,
      "byteOffset": 180264,
      "byteStride": 16,
      "name": "floatBufferViews",
      "target": 34962
    }
  ],
  "buffers": [
    {
      "byteLength": 232616,
      "uri": "scene.bin"
    }
  ],
  "images": [
    {
      "uri": "textures/Base_baseColor.png"
    },
    {
      "uri": "textures/Base_metallicRoughness.png"
    },
    {
      "uri": "textures/Base_normal.png"
    },
    {
      "uri": "textures/Woods_baseColor.png"
    },
    {
      "uri": "textures/Woods_metallicRoughness.png"
    },
    {
      "uri": "textures/Woods_normal.png"
    },
    {
      "uri": "textures/Roofs_baseColor.png"
    },
    {
      "uri": "textures/Roofs_metallicRoughness.png"
    },
    {
      "uri": "textures/Roofs_normal.png"
    },
    {
      "uri": "textures/Logo_baseColor.png"
    },
    {
      "uri": "textures/Logo_metallicRoughness.png"
    },
    {
      "uri": "textures/Logo_normal.png"
    }
  ],
  "materials": [
    {
      "doubleSided": true,
      "name": "Base",
      "normalTexture": {
        "index": 2
      },
      "pbrMetallicRoughness": {
        "baseColorTexture": {
          "index": 0
        },
        "metallicFactor": 0.0,
        "metallicRoughnessTexture": {
          "index": 1
        }
      }
    },
    {
      "doubleSided": true,
      "name": "Woods",
      "normalTexture": {
        "index": 5
      },
      "pbrMetallicRoughness": {
        "baseColorTexture": {
          "index": 3
        },
        "metallicFactor": 0.0,
        "metallicRoughnessTexture": {
          "index": 4
        }
      }
    },
    {
      "doubleSided": true,
      "name": "Roofs",
      "normalTexture": {
        "index": 8
      },
      "pbrMetallicRoughness": {
        "baseColorTexture": {
          "index": 6
        },
        "metallicFactor": 0.0,
        "metallicRoughnessTexture": {
          "index": 7
        }
      }
    },
    {
      "doubleSided": true,
      "name": "Logo",
      "normalTexture": {
        "index": 11
      },
      "pbrMetallicRoughness": {
        "baseColorTexture": {
          "index": 9
        },
        "metallicFactor": 0.0,
        "metallicRoughnessTexture": {
          "index": 10
        }
      }
    }
  ],
  "meshes": [
    {
      "name": "Base_Base_0",
      "primitives": [
        {
          "attributes": {
            "NORMAL": 1,
            "POSITION": 0,
            "TANGENT": 2,
            "TEXCOORD_0": 3,
            "TEXCOORD_1": 4,
            "TEXCOORD_2": 5
          },
          "indices": 6,
          "material": 0,
          "mode": 4
        }
      ]
    },
    {
      "name": "Woods_Woods_0",
      "primitives": [
        {
          "attributes": {
            "NORMAL": 8,
            "POSITION": 7,
            "TANGENT": 9,
            "TEXCOORD_0": 10,
            "TEXCOORD_1": 11,
            "TEXCOORD_2": 12
          },
          "indices": 13,
          "material": 1,
          "mode": 4
        }
      ]
    },
    {
      "name": "Roofs_Roofs_0",
      "primitives": [
        {
          "attributes": {
            "NORMAL": 15,
            "POSITION": 14,
            "TANGENT": 16,
            "TEXCOORD_0": 17,
            "TEXCOORD_1": 18,
            "TEXCOORD_2": 19
          },
          "indices": 20,
          "material": 2,
          "mode": 4
        }
      ]
    },
    {
      "name": "Logo_Logo_0",
      "primitives": [
        {
          "attributes": {
            "NORMAL": 22,
            "POSITION": 21,
            "TANGENT": 23,
            "TEXCOORD_0": 24,
            "TEXCOORD_1": 25,
            "TEXCOORD_2": 26
          },
          "indices": 27,
          "material": 3,
          "mode": 4
        }
      ]
    }
  ],
  "nodes": [
    {
      "children": [
        1
      ],
      "matrix": [
        1.0,
        0.0,
        0.0,
        0.0,
        0.0,
        2.220446049250313e-16,
        -1.0,
        0.0,
        0.0,
        1.0,
        2.220446049250313e-16,
        0.0,
        0.0,
        0.0,
        0.0,
        1.0
      ],
      "name": "Sketchfab_model"
    },
    {
      "children": [
        2
      ],
      "matrix": [
        1.0,
        0.0,
        0.0,
        0.0,
        0.0,
        0.0,
        1.0,
        0.0,
        0.0,
        -1.0,
        0.0,
        0.0,
        0.0,
        0.0,
        0.0,
        1.0
      ],
      "name": "146597088e2442c69103116c3cb68b5f.fbx"
    },
    {
      "children": [
        3
      ],
      "name": "RootNode"
    },
    {
      "children": [
        4,
        5,
        7,
        9
      ],
      "matrix": [
        -0.9999999999999964,
        1.2246467991473515e-16,
        8.742278000372476e-08,
        0.0,
        -3.698906412640348e-15,
        0.999999999999999,
        -4.371138840920244e-08,
        0.0,
        -8.742278000372468e-08,
        -4.37113884092026e-08,
        -0.9999999999999956,
        0.0,
        -0.15169723331928253,
        1.2521724700927734,
        2.165433645248413,
        1.0
      ],
      "name": "Base"
    },
    {
      "mesh": 0,
      "name": "Base_Base_0"
    },
    {
      "children": [
        6
      ],
      "matrix": [
        1.0,
        -7.888609052210117e-31,
        -1.3234889800848443e-23,
        0.0,
        2.3665827156630263e-30,
        0.9999999999999929,
        1.19209289550781e-07,
        0.0,
        1.3234889800848255e-23,
        -1.19209289550781e-07,
        0.9999999999999929,
        0.0,
        0.20494996011257172,
        1.2025264501571655,
        0.906130313873291,
        1.0
      ],
      "name": "Woods"
    },
    {
      "mesh": 1,
      "name": "Woods_Woods_0"
    },
    {
      "children": [
        8
      ],
      "matrix": [
        1.0,
        -7.888609052210117e-31,
        -1.3234889800848443e-23,
        0.0,
        2.3665827156630263e-30,
        0.9999999999999929,
        1.19209289550781e-07,
        0.0,
        1.3234889800848255e-23,
        -1.19209289550781e-07,
        0.9999999999999929,
        0.0,
        1.4623621702194214,
        2.027280569076538,
        -2.79347562789917,
        1.0
      ],
      "name": "Roofs"
    },
    {
      "mesh": 2,
      "name": "Roofs_Roofs_0"
    },
    {
      "children": [
        10
      ],
      "matrix": [
        1.0,
        -7.888609052210117e-31,
        -1.3234889800848443e-23,
        0.0,
        2.3665827156630263e-30,
        0.9999999999999929,
        1.19209289550781e-07,
        0.0,
        1.3234889800848255e-23,
        -1.19209289550781e-07,
        0.9999999999999929,
        0.0,
        -0.15169717371463776,
        3.9212708473205566,
        1.4215037822723389,
        1.0
      ],
      "name": "Logo"
    },
    {
      "mesh": 3,
      "name": "Logo_Logo_0"
    }
  ],
  "samplers": [
    {
      "magFilter": 9729,
      "minFilter": 9987,
      "wrapS": 10497,
      "wrapT": 10497
    }
  ],
  "scene": 0,
  "scenes": [
    {
      "name": "Sketchfab_Scene",
      "nodes": [
        0
      ]
    }
  ],
  "textures": [
    {
      "sampler": 0,
      "source": 0
    },
    {
      "sampler": 0,
      "source": 1
    },
    {
      "sampler": 0,
      "source": 2
    },
    {
      "sampler": 0,
      "source": 3
    },
    {
      "sampler": 0,
      "source": 4
    },
    {
      "sampler": 0,
      "source": 5
    },
    {
      "sampler": 0,
      "source": 6
    },
    {
      "sampler": 0,
      "source": 7
    },
    {
      "sampler": 0,
      "source": 8
    },
    {
      "sampler": 0,
      "source": 9
    },
    {
      "sampler": 0,
      "source": 10
    },
    {
      "sampler": 0,
      "source": 11
    }
  ]
}
