{
  "accessors": [
    {
      "bufferView": 2,
      "componentType": 5126,
      "count": 3469,
      "max": [
        35.62080383300781,
        40.73473358154297,
        48.88233947753906
      ],
      "min": [
        -42.75635528564453,
        -55.93321990966797,
        -0.500004768371582
      ],
      "type": "VEC3"
    },
    {
      "bufferView": 2,
      "byteOffset": 41628,
      "componentType": 5126,
      "count": 3469,
      "max": [
        1.0,
        1.0,
        1.0
      ],
      "min": [
        -1.0,
        -1.0,
        -1.0
      ],
      "type": "VEC3"
    },
    {
      "bufferView": 3,
      "componentType": 5126,
      "count": 3469,
      "max": [
        1.0,
        1.0,
        1.0,
        1.0
      ],
      "min": [
        -1.0,
        -1.0,
        -1.0,
        -1.0
      ],
      "type": "VEC4"
    },
    {
      "bufferView": 3,
      "byteOffset": 55504,
      "componentType": 5126,
      "count": 3469,
      "max": [
        1.0,
        1.0,
        1.0,
        1.0
      ],
      "min": [
        1.0,
        1.0,
        1.0,
        1.0
      ],
      "type": "VEC4"
    },
    {
      "bufferView": 1,
      "componentType": 5126,
      "count": 3469,
      "max": [
        0.9936330914497375,
        0.9958159923553467
      ],
      "min": [
        0.0005000000237487257,
        0.0005000000237487257
      ],
      "type": "VEC2"
    },
    {
      "bufferView": 0,
      "componentType": 5125,
      "count": 6810,
      "type": "SCALAR"
    },
    {
      "bufferView": 2,
      "byteOffset": 83256,
      "componentType": 5126,
      "count": 2072,
      "max": [
        43.07167053222656,
        41.96421432495117,
        13.451271057128906
      ],
      "min": [
        -40.17748260498047,
        -47.14617919921875,
        -0.5904020667076111
      ],
      "type": "VEC3"
    },
    {
      "bufferView": 2,
      "byteOffset": 108120,
      "componentType": 5126,
      "count": 2072,
      "max": [
        0.000172379455761984,
        0.0001733437820803374,
        1.0
      ],
      "min": [
        -0.00017294727149419487,
        -0.00017329744878225029,
        1.0
      ],
      "type": "VEC3"
    },
    {
      "bufferView": 3,
      "byteOffset": 111008,
      "componentType": 5126,
      "count": 2072,
      "max": [
        0.9999866485595703,
        0.9999998807907104,
        0.00017334618314635009,
        1.0
      ],
      "min": [
        -0.9991877675056458,
        -0.9999954104423523,
        -0.00017330395348835737,
        -1.0
      ],
      "type": "VEC4"
    },
    {
      "bufferView": 3,
      "byteOffset": 144160,
      "componentType": 5126,
      "count": 2072,
      "max": [
        1.0,
        1.0,
        1.0,
        1.0
      ],
      "min": [
        1.0,
        1.0,
        1.0,
        0.0
      ],
      "type": "VEC4"
    },
    {
      "bufferView": 1,
      "byteOffset": 27752,
      "componentType": 5126,
      "count": 2072,
      "max": [
        0.9914324879646301,
        0.9838255047798157
      ],
      "min": [
        0.5218783617019653,
        0.8611880540847778
      ],
      "type": "VEC2"
    },
    {
      "bufferView": 0,
      "byteOffset": 27240,
      "componentType": 5125,
      "count": 3276,
      "type": "SCALAR"
    },
    {
      "bufferView": 2,
      "byteOffset": 132984,
      "componentType": 5126,
      "count": 121,
      "max": [
        100.0,
        100.0,
        0.7874139547348022
      ],
      "min": [
        -100.0,
        -100.0,
        -0.750949501991272
      ],
      "type": "VEC3"
    },
    {
      "bufferView": 2,
      "byteOffset": 134436,
      "componentType": 5126,
      "count": 121,
      "max": [
        0.016028588637709618,
        0.024577803909778595,
        0.9999998211860657
      ],
      "min": [
        -0.03478478267788887,
        -0.021991143003106117,
        0.9992291331291199
      ],
      "type": "VEC3"
    },
    {
      "bufferView": 1,
      "byteOffset": 44328,
      "componentType": 5126,
      "count": 121,
      "max": [
        1.0,
        1.0
      ],
      "min": [
        2.9802322387695313e-08,
        2.9802322387695313e-08
      ],
      "type": "VEC2"
    },
    {
      "bufferView": 0,
      "byteOffset": 40344,
      "componentType": 5125,
      "count": 600,
      "type": "SCALAR"
    }
  ],
  "asset": {
    "extras": {
      "author": "Anthony Ferrandiz (https://sketchfab.com/AnthonyFerrandiz)",
      "license": "CC-BY-4.0 (http://creativecommons.org/licenses/by/4.0/)",
      "source": "https://sketchfab.com/3d-models/western-town-house-1-046e0e8b768b4d95a22dc482c100903a",
      "title": "Western Town House 1"
    },
    "generator": "Sketchfab-12.66.0",
    "version": "2.0"
  },
  "bufferViews": [
    {
      "buffer": 0,
      "byteLength": 42744,
      "name": "floatBufferViews",
      "target": 34963
    },
    {
      "buffer": 0,
      "byteLength": 45296,
      "byteOffset": 42744,
      "byteStride": 8,
      "name": "floatBufferViews",
      "target": 34962
    },
    {
      "buffer": 0,
      "byteLength": 135888,
      "byteOffset": 88040,
      "byteStride": 12,
      "name": "floatBufferViews",
      "target": 34962
    },
    {
      "buffer": 0,
      "byteLength": 177312,
      "byteOffset": 223928,
      "byteStride": 16,
      "name": "floatBufferViews",
      "target": 34962
    }
  ],
  "buffers": [
    {
      "byteLength": 401240,
      "uri": "scene.bin"
    }
  ],
  "images": [
    {
      "uri": "textures/House_1_baseColor.png"
    },
    {
      "uri": "textures/House_1_metallicRoughness.png"
    },
    {
      "uri": "textures/House_1_normal.png"
    },
    {
      "uri": "textures/House_1_Alpha_baseColor.png"
    },
    {
      "uri": "textures/Ground_baseColor.png"
    }
  ],
  "materials": [
    {
      "name": "House_1",
      "normalTexture": {
        "index": 2
      },
      "pbrMetallicRoughness": {
        "baseColorTexture": {
          "index": 0
        },
        "metallicRoughnessTexture": {
          "index": 1
        }
      }
    },
    {
      "alphaCutoff": 0.05,
      "alphaMode": "MASK",
      "name": "House_1_Alpha",
      "normalTexture": {
        "index": 2
      },
      "pbrMetallicRoughness": {
        "baseColorTexture": {
          "index": 3
        },
        "metallicFactor": 0.0931783537,
        "roughnessFactor": 0.9251143293
      }
    },
    {
      "alphaMode": "BLEND",
      "name": "Ground",
      "pbrMetallicRoughness": {
        "baseColorTexture": {
          "index": 4
        },
        "metallicFactor": 0.0
      }
    }
  ],
  "meshes": [
    {
      "name": "House 1_House 1_0",
      "primitives": [
        {
          "attributes": {
            "COLOR_0": 3,
            "NORMAL": 1,
            "POSITION": 0,
            "TANGENT": 2,
            "TEXCOORD_0": 4
          },
          "indices": 5,
          "material": 0,
          "mode": 4
        }
      ]
    },
    {
      "name": "House 1_House 1 Alpha_0",
      "primitives": [
        {
          "attributes": {
            "COLOR_0": 9,
            "NORMAL": 7,
            "POSITION": 6,
            "TANGENT": 8,
            "TEXCOORD_0": 10
          },
          "indices": 11,
          "material": 1,
          "mode": 4
        }
      ]
    },
    {
      "name": "Ground_Ground_0",
      "primitives": [
        {
          "attributes": {
            "NORMAL": 13,
            "POSITION": 12,
            "TEXCOORD_0": 14
          },
          "indices": 15,
          "material": 2,
          "mode": 4
        }
      ]
    }
  ],
  "nodes": [
    {
      "children": [
        1
      ],
      "matrix": [
        0.10000000149011612,
        0.0,
        0.0,
        0.0,
        0.0,
        2.2204460823375376e-17,
        -0.10000000149011612,
        0.0,
        0.0,
        0.10000000149011612,
        2.2204460823375376e-17,
        0.0,
        0.0,
        0.0,
        0.0,
        1.0
      ],
      "name": "Sketchfab_model"
    },
    {
      "children": [
        2
      ],
      "matrix": [
        1.0,
        0.0,
        0.0,
        0.0,
        0.0,
        0.0,
        1.0,
        0.0,
        0.0,
        -1.0,
        0.0,
        0.0,
        0.0,
        0.0,
        0.0,
        1.0
      ],
      "name": "9461c38b111049f9a9079db6c52c1fa4.fbx"
    },
    {
      "children": [
        3,
        6
      ],
      "name": "RootNode"
    },
    {
      "children": [
        4,
        5
      ],
      "matrix": [
        1.0,
        0.0,
        0.0,
        0.0,
        0.0,
        2.220446049250313e-16,
        -1.0,
        0.0,
        0.0,
        1.0,
        2.220446049250313e-16,
        0.0,
        0.0,
        0.0,
        0.0,
        1.0
      ],
      "name": "House 1"
    },
    {
      "mesh": 0,
      "name": "House 1_House 1_0"
    },
    {
      "mesh": 1,
      "name": "House 1_House 1 Alpha_0"
    },
    {
      "children": [
        7
      ],
      "matrix": [
        1.0,
        0.0,
        0.0,
        0.0,
        0.0,
        2.220446049250313e-16,
        -1.0,
        0.0,
        0.0,
        1.0,
        2.220446049250313e-16,
        0.0,
        0.0,
        0.0,
        0.0,
        1.0
      ],
      "name": "Ground"
    },
    {
      "mesh": 2,
      "name": "Ground_Ground_0"
    }
  ],
  "samplers": [
    {
      "magFilter": 9729,
      "minFilter": 9987,
      "wrapS": 10497,
      "wrapT": 10497
    }
  ],
  "scene": 0,
  "scenes": [
    {
      "name": "Sketchfab_Scene",
      "nodes": [
        0
      ]
    }
  ],
  "textures": [
    {
      "sampler": 0,
      "source": 0
    },
    {
      "sampler": 0,
      "source": 1
    },
    {
      "sampler": 0,
      "source": 2
    },
    {
      "sampler": 0,
      "source": 3
    },
    {
      "sampler": 0,
      "source": 4
    }
  ]
}
