{
  "accessors": [
    {
      "bufferView": 2,
      "componentType": 5126,
      "count": 670,
      "max": [
        1.328029990196228,
        6.987460136413574,
        3.1760001182556152
      ],
      "min": [
        -1.3347899913787842,
        -0.9874600172042847,
        -3.0208001136779785
      ],
      "type": "VEC3"
    },
    {
      "bufferView": 2,
      "byteOffset": 8040,
      "componentType": 5126,
      "count": 670,
      "max": [
        1.0,
        1.0,
        1.0
      ],
      "min": [
        -1.0,
        -1.0,
        -1.0
      ],
      "type": "VEC3"
    },
    {
      "bufferView": 3,
      "componentType": 5126,
      "count": 670,
      "max": [
        1.0,
        0.9999998807907104,
        0.999998927116394,
        1.0
      ],
      "min": [
        -1.0,
        -0.9999999403953552,
        -0.9999989867210388,
        1.0
      ],
      "type": "VEC4"
    },
    {
      "bufferView": 1,
      "componentType": 5126,
      "count": 670,
      "max": [
        0.4830799996852875,
        0.9909200072288513
      ],
      "min": [
        0.006409999914467335,
        0.00395999988541007
      ],
      "type": "VEC2"
    },
    {
      "bufferView": 0,
      "componentType": 5125,
      "count": 1872,
      "type": "SCALAR"
    }
  ],
  "asset": {
    "extras": {
      "author": "adam127 (https://sketchfab.com/adam127)",
      "license": "CC-BY-4.0 (http://creativecommons.org/licenses/by/4.0/)",
      "source": "https://sketchfab.com/3d-models/old-gallows-e9d235ecfc974e44b1caa97b0980e157",
      "title": "Old gallows"
    },
    "generator": "Sketchfab-12.64.0",
    "version": "2.0"
  },
  "bufferViews": [
    {
      "buffer": 0,
      "byteLength": 7488,
      "name": "floatBufferViews",
      "target": 34963
    },
    {
      "buffer": 0,
      "byteLength": 5360,
      "byteOffset": 7488,
      "byteStride": 8,
      "name": "floatBufferViews",
      "target": 34962
    },
    {
      "buffer": 0,
      "byteLength": 16080,
      "byteOffset": 12848,
      "byteStride": 12,
      "name": "floatBufferViews",
      "target": 34962
    },
    {
      "buffer": 0,
      "byteLength": 10720,
      "byteOffset": 28928,
      "byteStride": 16,
      "name": "floatBufferViews",
      "target": 34962
    }
  ],
  "buffers": [
    {
      "byteLength": 39648,
      "uri": "scene.bin"
    }
  ],
  "images": [
    {
      "uri": "textures/gallow_baseColor.png"
    },
    {
      "uri": "textures/gallow_normal.png"
    }
  ],
  "materials": [
    {
      "doubleSided": true,
      "name": "gallow",
      "normalTexture": {
        "index": 1
      },
      "pbrMetallicRoughness": {
        "baseColorTexture": {
          "index": 0
        },
        "metallicFactor": 0.0,
        "roughnessFactor": 0.6
      }
    }
  ],
  "meshes": [
    {
      "name": "gallow_0",
      "primitives": [
        {
          "attributes": {
            "NORMAL": 1,
            "POSITION": 0,
            "TANGENT": 2,
            "TEXCOORD_0": 3
          },
          "indices": 4,
          "material": 0,
          "mode": 4
        }
      ]
    }
  ],
  "nodes": [
    {
      "children": [
        1
      ],
      "matrix": [
        1.0,
        0.0,
        0.0,
        0.0,
        0.0,
        2.220446049250313e-16,
        -1.0,
        0.0,
        0.0,
        1.0,
        2.220446049250313e-16,
        0.0,
        0.0,
        0.0,
        0.0,
        1.0
      ],
      "name": "Sketchfab_model"
    },
    {
      "children": [
        2,
        4
      ],
      "name": "Root"
    },
    {
      "children": [
        3
      ],
      "name": "gallow"
    },
    {
      "mesh": 0,
      "name": "gallow_0"
    },
    {
      "children": [
        5
      ],
      "matrix": [
        0.37327000000000005,
        -0.3373000000000001,
        -0.86423,
        0.0,
        0.6704500000000001,
        0.7419600000000001,
        0.0,
        0.0,
        0.6412200000000001,
        -0.57942,
        0.50309,
        0.0,
        6.7392400000000015,
        -16.00463,
        0.48324,
        1.0
      ],
      "name": "Sun"
    },
    {
      "name": "Sun"
    }
  ],
  "samplers": [
    {
      "magFilter": 9729,
      "minFilter": 9987,
      "wrapS": 10497,
      "wrapT": 10497
    }
  ],
  "scene": 0,
  "scenes": [
    {
      "name": "Sketchfab_Scene",
      "nodes": [
        0
      ]
    }
  ],
  "textures": [
    {
      "sampler": 0,
      "source": 0
    },
    {
      "sampler": 0,
      "source": 1
    }
  ]
}
